<?xml version="1.0" encoding="utf-8"?>
<!-- Generator: Adobe Illustrator 24.0.2, SVG Export Plug-In . SVG Version: 6.00 Build 0)  -->
<svg version="1.1" id="Layer_1" xmlns="http://www.w3.org/2000/svg" xmlns:xlink="http://www.w3.org/1999/xlink" x="0px" y="0px"
	 viewBox="0 0 192 192" style="enable-background:new 0 0 192 192;" xml:space="preserve">
<style type="text/css">
	.st0{fill:#D5D5D5;}
</style>
<g>
	<g>
		<g>
			<g>
				<path class="st0" d="M152.55,54.02c-5.75-6.59-12.92-11.76-21.3-15.37c-8.43-3.63-17.64-5.47-27.38-5.47H43.19L26,158.83h64.45
					c17.71,0,35.19-6.17,49.21-17.38c14.36-11.48,23.52-26.96,25.8-43.58C167.67,81.67,163.09,66.1,152.55,54.02z M138.15,94.13
					c-2.75,20.13-24.59,37.13-47.69,37.13h-0.8l-2.12,8.49l0.22-8.49H57.59l4.91-35.88l-4.61-0.82l4.84-0.85l4.51-32.97h31.03
					l2.91-11.37l-0.25,11.37h2.95c11.41,0,21.59,4.16,27.91,11.41C137.08,78.21,139.28,85.82,138.15,94.13z"/>
			</g>
		</g>
		<path class="st0" d="M123.23,93.83c0.65-8.9-1.86-17.28-7.02-23.26c-4.02-4.65-9.39-7.51-15.32-8.22l0.04-1.62h-2.66l-0.37,1.45
			c-3.97,0.01-7.92,0.94-11.65,2.71l-0.01,0l0,0c-3.33,1.57-6.49,3.8-9.34,6.64c-5.81,5.78-9.72,13.41-11.08,21.64l-3.08,0.54
			l-0.23,1.67l2.95,0.53c-0.88,9.22,1.62,17.94,6.95,24.11c4.04,4.68,9.46,7.55,15.44,8.23l-0.08,3.02h1.9l0.72-2.87
			c0.09,0,0.18,0,0.27,0c7.53,0,14.99-3.31,21.07-9.35c6.08-6.04,10.06-14.11,11.25-22.76l7.95-1.33L123.23,93.83z M121.14,93.52
			l-3.95-0.58c0.2-4.59-0.67-8.98-2.51-12.73l3.52-2.77C120.51,82.13,121.54,87.7,121.14,93.52z M81.19,78.77l3.32,11.11
			l-10.07,1.77c0.26-1.12,0.59-2.21,0.98-3.27l2.89-5.85C79.17,81.18,80.14,79.92,81.19,78.77z M82.13,106.11l5.41-7.46h2.27
			L82.13,106.11z M90.68,100.05l3.03-2.97l-3.89,25.48L90.68,100.05z M92.25,84.26l-9.24-7.31c3.63-3.3,8.02-5.44,12.61-5.85
			L92.25,84.26z M92.63,88.26l-0.87,2.7l-6.17-7.79L92.63,88.26z M99.22,67.38l-0.43,21.85l-4.39,3.79L99.22,67.38z M106.69,83.17
			l-5.84,8.76l-2.6-0.87L106.69,83.17z M98.25,97.99l-2.05-2.46h18.92L98.25,97.99z M103.12,107.19l-6.92-5.41l0.61-3.14
			L103.12,107.19z M115.09,92.62l-10.46-1.55l7.65-10.92C114.28,83.74,115.26,88.06,115.09,92.62z M100.41,83.71l0.27-12.34
			c3.6,0.74,6.84,2.64,9.34,5.53c0.37,0.43,0.72,0.87,1.05,1.33L100.41,83.71z M90.57,91.94l2.06,2.62H71.64L90.57,91.94z
			 M73.68,97.37l10.18,1.81l-7.35,10.53C74.53,106.17,73.54,101.89,73.68,97.37z M77.99,111.99L88.41,106l-0.32,12.47
			c-3.6-0.74-6.83-2.64-9.33-5.53C78.49,112.63,78.24,112.32,77.99,111.99z M92.77,118.78l3.43-13.75l9.71,7.75
			C102.15,116.24,97.56,118.45,92.77,118.78z M107.21,111.49l-3.55-11.98l10.78-1.8C113.28,103.04,110.67,107.82,107.21,111.49z
			 M114.61,71.95c0.43,0.5,0.85,1.02,1.24,1.56l-3.63,2.74c-0.2-0.25-0.39-0.49-0.6-0.73c-2.9-3.35-6.68-5.52-10.88-6.29l0.1-4.76
			C106.17,65.16,110.99,67.76,114.61,71.95z M79.95,71.56l2.43,3.13c-0.58,0.49-1.15,1.01-1.71,1.57c-0.52,0.51-1.01,1.04-1.49,1.59
			l-2.47-3.04C77.73,73.64,78.81,72.56,79.95,71.56z M67.53,96.28L71.58,97c-0.21,5.13,0.92,10,3.24,14.02l-3.59,3.71
			C68.23,109.51,66.92,103.05,67.53,96.28z M74.19,118.85l3.88-3.55c2.76,2.79,6.19,4.62,9.96,5.31l-0.14,5.51
			C82.61,125.47,77.81,122.94,74.19,118.85z M108.51,119.15l-2.73-3.48c0.8-0.64,1.58-1.33,2.34-2.08c0.44-0.44,0.87-0.89,1.28-1.36
			l0,0l2.93,3.06C111.14,116.69,109.86,117.98,108.51,119.15z"/>
	</g>
</g>
</svg>
