<?xml version="1.0" encoding="utf-8"?>
<!-- Generator: Adobe Illustrator 24.0.2, SVG Export Plug-In . SVG Version: 6.00 Build 0)  -->
<svg version="1.1" id="Layer_1" xmlns="http://www.w3.org/2000/svg" xmlns:xlink="http://www.w3.org/1999/xlink" x="0px" y="0px"
	 viewBox="0 0 192 192" style="enable-background:new 0 0 192 192;" xml:space="preserve">
<style type="text/css">
	.st0{fill:#D5D5D5;}
</style>
<g>
	<polygon class="st0" points="95.93,53.88 65.03,22 22.68,22 22.68,71.64 45,94.18 67.99,70.95 51.83,53.88 	"/>
	<polygon class="st0" points="104.42,61.62 80.97,61.62 22.68,120.36 22.68,170 65.26,170 95.93,138.35 50.92,138.35 116.95,73.69 	
		"/>
	<polygon class="st0" points="96.07,53.88 126.97,22 169.32,22 169.32,71.64 110.42,131.14 87.35,131.14 75.28,118.77 140.17,53.88 
			"/>
	<polygon class="st0" points="146.98,97.85 169.32,120.36 169.32,170 126.74,170 96.07,138.35 141.08,138.35 123.94,121.56 	"/>
</g>
</svg>
